# xmcd
#
# Track frame offsets:
#	150
#	13839
#	27230
#	45035
#	61595
#	78009
#	98555
#	116726
#	126671
#	142273
#	160239
#	175480
#	193345
#	210419
#
# Disc length: 2981 seconds
#
# Revision: 0
# Processed by: cddbd v1.4PL0 Copyright (c) Steve Scherf et al.
# Submitted via: dBpowerAMP V4.0
#
DISCID=bb0ba30e
DTITLE=Sunsey Travelers - For The Sake of It
DYEAR=2002
DGENRE=Blues
TTITLE0=Can't Beat The kid
TTITLE1=I Got A Sure Thing
TTITLE2=I Washed My Hands In Muddy Waters
TTITLE3=One Day
TTITLE4=Get Up Jake
TTITLE5=For The Sake Of It
TTITLE6=Shake A Hand
TTITLE7=Long Farewell
TTITLE8=Let It Happen
TTITLE9=Walk A Mile In My Shoes
TTITLE10=The Man In Me
TTITLE11=Everybody Knows (The River Song)
TTITLE12=Something's Really On My Mind
TTITLE13=Better Day
EXTD=
EXTT0=
EXTT1=
EXTT2=
EXTT3=
EXTT4=
EXTT5=
EXTT6=
EXTT7=
EXTT8=
EXTT9=
EXTT10=
EXTT11=
EXTT12=
EXTT13=
PLAYORDER=
